<?xml version="1.0" encoding="utf-8"?>
<!-- Generator: Adobe Illustrator 25.1.0, SVG Export Plug-In . SVG Version: 6.00 Build 0)  -->
<svg version="1.1" id="Layer_1" xmlns="http://www.w3.org/2000/svg" xmlns:xlink="http://www.w3.org/1999/xlink" x="0px" y="0px"
	 viewBox="0 0 28 50" style="enable-background:new 0 0 28 50;" xml:space="preserve">
<style type="text/css">
	.st0{fill:url(#SVGID_1_);stroke:url(#SVGID_2_);stroke-miterlimit:10;}
</style>
<linearGradient id="SVGID_1_" gradientUnits="userSpaceOnUse" x1="2.925" y1="24.9" x2="24.6" y2="24.9">
	<stop  offset="0" style="stop-color:#000000"/>
	<stop  offset="0.1726" style="stop-color:#030303"/>
	<stop  offset="0.2992" style="stop-color:#0C0C0C"/>
	<stop  offset="0.4107" style="stop-color:#1C1C1C"/>
	<stop  offset="0.4603" style="stop-color:#262626"/>
	<stop  offset="0.5287" style="stop-color:#181818"/>
	<stop  offset="0.6341" style="stop-color:#0A0A0A"/>
	<stop  offset="0.7654" style="stop-color:#020202"/>
	<stop  offset="1" style="stop-color:#000000"/>
</linearGradient>
<linearGradient id="SVGID_2_" gradientUnits="userSpaceOnUse" x1="2.425" y1="24.9" x2="25.1" y2="24.9">
	<stop  offset="0" style="stop-color:#000000"/>
	<stop  offset="4.332632e-02" style="stop-color:#292929"/>
	<stop  offset="0.1036" style="stop-color:#5B5B5B"/>
	<stop  offset="0.1652" style="stop-color:#868686"/>
	<stop  offset="0.2271" style="stop-color:#AAAAAA"/>
	<stop  offset="0.2893" style="stop-color:#C5C5C5"/>
	<stop  offset="0.3521" style="stop-color:#D8D8D8"/>
	<stop  offset="0.4157" style="stop-color:#E4E4E4"/>
	<stop  offset="0.4815" style="stop-color:#E8E8E8"/>
	<stop  offset="0.5846" style="stop-color:#E5E5E5"/>
	<stop  offset="0.6563" style="stop-color:#DCDCDC"/>
	<stop  offset="0.7186" style="stop-color:#CDCDCD"/>
	<stop  offset="0.7754" style="stop-color:#B7B7B7"/>
	<stop  offset="0.8286" style="stop-color:#9A9A9A"/>
	<stop  offset="0.879" style="stop-color:#787878"/>
	<stop  offset="0.9273" style="stop-color:#4E4E4E"/>
	<stop  offset="0.9727" style="stop-color:#202020"/>
	<stop  offset="1" style="stop-color:#000000"/>
</linearGradient>
<path class="st0" d="M11.5,0.6c-0.1,0.2,0.4,0.8,0.7,0.8s0.5,0.6,0.2,0.9c-0.1,0.1-1,1-2,1.9S8.4,6,8.2,6.4c-1.1,1.6-1,3.4,0.4,4.9
	c0.9,1,1,1.2,0.6,2c-0.2,0.4-0.1,0.5,0.1,0.8c0.2,0.3,0.3,0.6,0.3,1.8c-0.1,1.4-0.1,1.5-0.6,1.7c-0.7,0.3-0.8,0.5-0.7,1.2
	c0.1,0.6-0.1,1-0.9,1.2c-0.4,0.1-0.6,0.2-0.6,0.6s0.1,0.5,0.7,0.8c0.4,0.1,0.8,0.3,1.1,0.3c1.1,0,1-0.1,1,3.6c0,4-0.3,6.5-1.2,9.3
	c-0.7,2-2,4.4-3.2,5.9c-1.5,1.8-1.5,1.8-1.5,3.7c0,1.3-0.1,1.8-0.4,2.4c-0.5,0.9-0.5,1.7,0,2c0.8,0.4,8.1,0.8,12.7,0.7
	c4.3-0.1,7.6-0.4,8.3-0.6c0.4-0.1,0.4-1.5,0-2c-0.2-0.3-0.3-0.9-0.3-2c0-0.9-0.1-1.8-0.2-2.1s-0.7-1.2-1.4-2.1
	c-1.4-1.8-2.3-3.6-3.1-5.9c-0.8-2.5-1.1-4.5-1.1-8.7c0-4.3-0.1-4,1.7-4.2c1-0.1,1.4-0.5,1.1-1c0-0.5-0.2-0.7-0.4-0.7
	c-0.6-0.1-0.8-0.4-0.8-1.2c0-0.8-0.1-0.9-0.7-1.1c-0.5-0.2-0.7-0.5-0.8-0.9c-0.2-0.8,0.1-2.1,0.4-2.5c0.3-0.3,0.3-0.4,0.1-1.1
	l-0.2-0.8l0.8-0.8c2.2-2.2,1.8-4.4-1.2-7.1c-2.6-2.3-2.7-2.6-1.7-3.1c1.1-0.6,0.6-0.8-2.2-0.8C12.7,0.4,11.5,0.5,11.5,0.6z"/>
</svg>
