<?xml version="1.0" encoding="utf-8"?>
<!-- Generator: Adobe Illustrator 25.1.0, SVG Export Plug-In . SVG Version: 6.00 Build 0)  -->
<svg version="1.1" id="Layer_1" xmlns="http://www.w3.org/2000/svg" xmlns:xlink="http://www.w3.org/1999/xlink" x="0px" y="0px"
	 viewBox="0 0 28 50" style="enable-background:new 0 0 28 50;" xml:space="preserve">
<style type="text/css">
	.st0{fill:url(#SVGID_1_);stroke:url(#SVGID_2_);stroke-miterlimit:10;}
</style>
<linearGradient id="SVGID_1_" gradientUnits="userSpaceOnUse" x1="2.925" y1="25.1" x2="24.6" y2="25.1" gradientTransform="matrix(1 0 0 -1 0 50)">
	<stop  offset="0" style="stop-color:#4E4E4E"/>
	<stop  offset="5.254777e-03" style="stop-color:#525252"/>
	<stop  offset="6.795181e-02" style="stop-color:#808080"/>
	<stop  offset="0.1331" style="stop-color:#A7A7A7"/>
	<stop  offset="0.1998" style="stop-color:#C7C7C7"/>
	<stop  offset="0.2687" style="stop-color:#E0E0E0"/>
	<stop  offset="0.3406" style="stop-color:#F1F1F1"/>
	<stop  offset="0.4174" style="stop-color:#FCFCFC"/>
	<stop  offset="0.5079" style="stop-color:#FFFFFF"/>
	<stop  offset="0.6148" style="stop-color:#FCFCFC"/>
	<stop  offset="0.69" style="stop-color:#F3F3F3"/>
	<stop  offset="0.7554" style="stop-color:#E3E3E3"/>
	<stop  offset="0.8153" style="stop-color:#CDCDCD"/>
	<stop  offset="0.8713" style="stop-color:#B1B1B1"/>
	<stop  offset="0.9246" style="stop-color:#8E8E8E"/>
	<stop  offset="0.9747" style="stop-color:#666666"/>
	<stop  offset="1" style="stop-color:#4E4E4E"/>
</linearGradient>
<linearGradient id="SVGID_2_" gradientUnits="userSpaceOnUse" x1="2.425" y1="24.9" x2="25.1" y2="24.9">
	<stop  offset="0" style="stop-color:#000000"/>
	<stop  offset="0.5079" style="stop-color:#FFFFFF"/>
	<stop  offset="1" style="stop-color:#000000"/>
</linearGradient>
<path class="st0" d="M11.5,0.6c-0.1,0.2,0.4,0.8,0.7,0.8s0.5,0.6,0.2,0.9c-0.1,0.1-1,1-2,1.9S8.4,6,8.2,6.4c-1.1,1.6-1,3.4,0.4,4.9
	c0.9,1,1,1.2,0.6,2c-0.2,0.4-0.1,0.5,0.1,0.8c0.2,0.3,0.3,0.6,0.3,1.8c-0.1,1.4-0.1,1.5-0.6,1.7c-0.7,0.3-0.8,0.5-0.7,1.2
	c0.1,0.6-0.1,1-0.9,1.2c-0.4,0.1-0.6,0.2-0.6,0.6s0.1,0.5,0.7,0.8c0.4,0.1,0.8,0.3,1.1,0.3c1.1,0,1-0.1,1,3.6c0,4-0.3,6.5-1.2,9.3
	c-0.7,2-2,4.4-3.2,5.9c-1.5,1.8-1.5,1.8-1.5,3.7c0,1.3-0.1,1.8-0.4,2.4c-0.5,0.9-0.5,1.7,0,2c0.8,0.4,8.1,0.8,12.7,0.7
	c4.3-0.1,7.6-0.4,8.3-0.6c0.4-0.1,0.4-1.5,0-2c-0.2-0.3-0.3-0.9-0.3-2c0-0.9-0.1-1.8-0.2-2.1s-0.7-1.2-1.4-2.1
	c-1.4-1.8-2.3-3.6-3.1-5.9c-0.8-2.5-1.1-4.5-1.1-8.7c0-4.3-0.1-4,1.7-4.2c1-0.1,1.4-0.5,1.1-1c0-0.5-0.2-0.7-0.4-0.7
	c-0.6-0.1-0.8-0.4-0.8-1.2c0-0.8-0.1-0.9-0.7-1.1c-0.5-0.2-0.7-0.5-0.8-0.9c-0.2-0.8,0.1-2.1,0.4-2.5c0.3-0.3,0.3-0.4,0.1-1.1
	l-0.2-0.8l0.8-0.8c2.2-2.2,1.8-4.4-1.2-7.1c-2.6-2.3-2.7-2.6-1.7-3.1c1.1-0.6,0.6-0.8-2.2-0.8C12.7,0.4,11.5,0.5,11.5,0.6z"/>
</svg>
