<?xml version="1.0" encoding="utf-8"?>
<!-- Generator: Adobe Illustrator 25.1.0, SVG Export Plug-In . SVG Version: 6.00 Build 0)  -->
<svg version="1.1" id="Layer_1" xmlns="http://www.w3.org/2000/svg" xmlns:xlink="http://www.w3.org/1999/xlink" x="0px" y="0px"
	 viewBox="0 0 28 55" style="enable-background:new 0 0 28 55;" xml:space="preserve">
<style type="text/css">
	.st0{fill:url(#SVGID_1_);stroke:url(#SVGID_2_);stroke-miterlimit:10;}
</style>
<linearGradient id="SVGID_1_" gradientUnits="userSpaceOnUse" x1="4.5434" y1="27.4858" x2="23.4648" y2="27.4858" gradientTransform="matrix(1 0 0 -1 0 55)">
	<stop  offset="0" style="stop-color:#000000"/>
	<stop  offset="0.1726" style="stop-color:#030303"/>
	<stop  offset="0.2992" style="stop-color:#0C0C0C"/>
	<stop  offset="0.4107" style="stop-color:#1C1C1C"/>
	<stop  offset="0.4603" style="stop-color:#262626"/>
	<stop  offset="0.5287" style="stop-color:#181818"/>
	<stop  offset="0.6341" style="stop-color:#0A0A0A"/>
	<stop  offset="0.7654" style="stop-color:#020202"/>
	<stop  offset="1" style="stop-color:#000000"/>
</linearGradient>
<linearGradient id="SVGID_2_" gradientUnits="userSpaceOnUse" x1="4.0434" y1="27.4858" x2="23.9648" y2="27.4858" gradientTransform="matrix(1 0 0 -1 0 55)">
	<stop  offset="0" style="stop-color:#000000"/>
	<stop  offset="4.332632e-02" style="stop-color:#292929"/>
	<stop  offset="0.1036" style="stop-color:#5B5B5B"/>
	<stop  offset="0.1652" style="stop-color:#868686"/>
	<stop  offset="0.2271" style="stop-color:#AAAAAA"/>
	<stop  offset="0.2893" style="stop-color:#C5C5C5"/>
	<stop  offset="0.3521" style="stop-color:#D8D8D8"/>
	<stop  offset="0.4157" style="stop-color:#E4E4E4"/>
	<stop  offset="0.4815" style="stop-color:#E8E8E8"/>
	<stop  offset="0.5846" style="stop-color:#E5E5E5"/>
	<stop  offset="0.6563" style="stop-color:#DCDCDC"/>
	<stop  offset="0.7186" style="stop-color:#CDCDCD"/>
	<stop  offset="0.7754" style="stop-color:#B7B7B7"/>
	<stop  offset="0.8286" style="stop-color:#9A9A9A"/>
	<stop  offset="0.879" style="stop-color:#787878"/>
	<stop  offset="0.9273" style="stop-color:#4E4E4E"/>
	<stop  offset="0.9727" style="stop-color:#202020"/>
	<stop  offset="1" style="stop-color:#000000"/>
</linearGradient>
<path class="st0" d="M12.2,0.7c0,0.1,0,0.4,0,0.9v0.8h-0.9c-1,0.1-1,0.1-1,2.2c0,1.7,0.1,1.9,1,1.8c0.8-0.1,1,0.2,0.9,1.2l-0.1,0.8
	L11,8.5C9.6,8.6,9.1,8.8,9.1,9.6c0,1-0.3,1.6-0.9,1.6c-1.3,0.2-1.3,0.8,0,2.2c1.7,1.7,2.6,3.9,2,4.8c-0.2,0.3-0.2,0.4,0,0.8
	c0.2,0.3,0.3,1.8,0.1,2.3c-0.1,0.1-0.3,0.3-0.7,0.4c-0.4,0.2-0.6,0.3-0.6,1c0,0.8-0.1,0.8-0.7,1.1c-1,0.4-0.8,1,0.7,1.2
	c1.4,0.2,1.3-0.2,1.3,5.2c0,5.2-0.1,6.8-0.8,9.2c-0.4,2-2,5.1-3.2,6.7c-1.3,1.9-1.3,1.7-1.3,3.9c0,1.3-0.1,2.1-0.3,2.3
	c-0.1,0.2-0.2,0.6-0.2,0.9c0,0.4,0.1,0.6,0.6,0.7c1.7,0.4,11.2,0.7,15.5,0.3c3-0.2,2.9-0.2,2.9-1c0-0.3-0.1-0.9-0.2-1
	c-0.2-0.3-0.3-0.9-0.3-2.1c0-2-0.1-2.4-1.2-3.7c-1.6-1.8-2.4-3.6-3.1-5.7c-0.8-2.7-0.9-3.9-0.9-9.8c0-5.2,0-5.5,0.3-5.7
	c0.2-0.1,0.6-0.1,0.9-0.1c1.3,0,1.9-0.9,0.8-1.2c-0.6-0.1-0.6-0.2-0.7-1c0-0.7-0.1-0.9-0.4-0.9c-0.2,0-0.6-0.2-0.7-0.3
	c-0.3-0.3-0.3-1.6,0-2.3c0.2-0.6,0.2-0.7,0-1s-0.2-0.6,0-1.3c0.3-1.3,1-2.2,2.1-3.5c0.6-0.6,1-1.1,1-1.3c0-0.4-0.4-0.9-0.9-0.9
	c-0.2,0-0.4-0.1-0.7-0.2c-0.3-0.2-0.3-0.4-0.3-1c0-1.1-0.3-1.3-1.6-1.3c-0.6,0-1.1-0.1-1.2-0.1c-0.3-0.2-0.4-1.6-0.2-1.9
	c0.2-0.4,0.6-0.6,1-0.6h0.7v-2v-2h-0.9H16V1.4V0.6h-1.9C13.1,0.6,12.2,0.7,12.2,0.7z"/>
</svg>
