<?xml version="1.0" encoding="utf-8"?>
<!-- Generator: Adobe Illustrator 25.1.0, SVG Export Plug-In . SVG Version: 6.00 Build 0)  -->
<svg version="1.1" id="Layer_1" xmlns="http://www.w3.org/2000/svg" xmlns:xlink="http://www.w3.org/1999/xlink" x="0px" y="0px"
	 viewBox="0 0 28 50" style="enable-background:new 0 0 28 50;" xml:space="preserve">
<style type="text/css">
	.st0{fill:url(#SVGID_1_);stroke:url(#SVGID_2_);stroke-miterlimit:10;}
</style>
<linearGradient id="SVGID_1_" gradientUnits="userSpaceOnUse" x1="5.5" y1="24.9778" x2="22.5005" y2="24.9778" gradientTransform="matrix(1 0 0 -1 0 50)">
	<stop  offset="0" style="stop-color:#4E4E4E"/>
	<stop  offset="5.254777e-03" style="stop-color:#525252"/>
	<stop  offset="6.795181e-02" style="stop-color:#808080"/>
	<stop  offset="0.1331" style="stop-color:#A7A7A7"/>
	<stop  offset="0.1998" style="stop-color:#C7C7C7"/>
	<stop  offset="0.2687" style="stop-color:#E0E0E0"/>
	<stop  offset="0.3406" style="stop-color:#F1F1F1"/>
	<stop  offset="0.4174" style="stop-color:#FCFCFC"/>
	<stop  offset="0.5079" style="stop-color:#FFFFFF"/>
	<stop  offset="0.6148" style="stop-color:#FCFCFC"/>
	<stop  offset="0.69" style="stop-color:#F3F3F3"/>
	<stop  offset="0.7554" style="stop-color:#E3E3E3"/>
	<stop  offset="0.8153" style="stop-color:#CDCDCD"/>
	<stop  offset="0.8713" style="stop-color:#B1B1B1"/>
	<stop  offset="0.9246" style="stop-color:#8E8E8E"/>
	<stop  offset="0.9747" style="stop-color:#666666"/>
	<stop  offset="1" style="stop-color:#4E4E4E"/>
</linearGradient>
<linearGradient id="SVGID_2_" gradientUnits="userSpaceOnUse" x1="5" y1="25.0222" x2="23.0005" y2="25.0222">
	<stop  offset="0" style="stop-color:#000000"/>
	<stop  offset="0.5079" style="stop-color:#FFFFFF"/>
	<stop  offset="1" style="stop-color:#000000"/>
</linearGradient>
<path class="st0" d="M12.4,0.9c0,0.1,0,0.4,0,0.8v0.7h-0.8c-0.9,0.1-0.9,0.1-0.9,2c0,1.5,0.1,1.7,0.9,1.6c0.7-0.1,0.9,0.2,0.8,1.1
	l-0.1,0.7l-1,0.1C10,8,9.6,8.2,9.6,8.9c0,0.9-0.3,1.4-0.8,1.4c-1.2,0.2-1.2,0.7,0,2c1.5,1.5,2.3,3.5,1.8,4.3c-0.2,0.3-0.2,0.4,0,0.7
	c0.2,0.3,0.3,1.6,0.1,2.1c-0.1,0.1-0.3,0.3-0.6,0.4c-0.4,0.2-0.5,0.3-0.5,0.9c0,0.7-0.1,0.7-0.6,1c-0.9,0.4-0.7,0.9,0.6,1.1
	s1.2-0.2,1.2,4.7c0,4.7-0.1,6.1-0.7,8.3c-0.4,1.8-1.8,4.6-2.9,6C6,43.5,6,43.3,6,45.3c0,1.2-0.1,1.9-0.3,2.1
	c-0.1,0.2-0.2,0.5-0.2,0.8c0,0.4,0.1,0.5,0.5,0.6c1.5,0.4,10.1,0.6,13.9,0.3c2.7-0.2,2.6-0.2,2.6-0.9c0-0.3-0.1-0.8-0.2-0.9
	C22.1,47,22,46.5,22,45.4c0-1.8-0.1-2.2-1.1-3.3c-1.4-1.6-2.2-3.2-2.8-5.1c-0.7-2.4-0.8-3.5-0.8-8.8c0-4.7,0-4.9,0.3-5.1
	c0.2-0.1,0.5-0.1,0.8-0.1c1.2,0,1.7-0.8,0.7-1.1c-0.5-0.1-0.5-0.2-0.6-0.9c0-0.6-0.1-0.8-0.4-0.8c-0.2,0-0.5-0.2-0.6-0.3
	c-0.3-0.3-0.3-1.4,0-2.1c0.2-0.5,0.2-0.6,0-0.9s-0.2-0.5,0-1.2c0.3-1.2,0.9-2,1.9-3.1c0.5-0.5,0.9-1,0.9-1.2c0-0.4-0.4-0.8-0.8-0.8
	c-0.2,0-0.4-0.1-0.6-0.2c-0.3-0.2-0.3-0.4-0.3-0.9c0-1-0.3-1.2-1.4-1.2c-0.5,0-1-0.1-1.1-0.1c-0.3-0.2-0.4-1.4-0.2-1.7
	C16.1,6.1,16.4,6,16.8,6h0.6V4.2V2.4h-0.8h-0.8V1.6V0.8h-1.7C13.2,0.8,12.4,0.9,12.4,0.9z"/>
</svg>
