<?xml version="1.0" encoding="utf-8"?>
<!-- Generator: Adobe Illustrator 25.1.0, SVG Export Plug-In . SVG Version: 6.00 Build 0)  -->
<svg version="1.1" id="Layer_1" xmlns="http://www.w3.org/2000/svg" xmlns:xlink="http://www.w3.org/1999/xlink" x="0px" y="0px"
	 viewBox="0 0 28 50" style="enable-background:new 0 0 28 50;" xml:space="preserve">
<style type="text/css">
	.st0{fill:url(#SVGID_1_);stroke:url(#SVGID_2_);stroke-miterlimit:10;}
</style>
<linearGradient id="SVGID_1_" gradientUnits="userSpaceOnUse" x1="1.9903" y1="24.4046" x2="25.4138" y2="24.4046">
	<stop  offset="0" style="stop-color:#000000"/>
	<stop  offset="0.1726" style="stop-color:#030303"/>
	<stop  offset="0.2992" style="stop-color:#0C0C0C"/>
	<stop  offset="0.4107" style="stop-color:#1C1C1C"/>
	<stop  offset="0.4603" style="stop-color:#262626"/>
	<stop  offset="0.5287" style="stop-color:#181818"/>
	<stop  offset="0.6341" style="stop-color:#0A0A0A"/>
	<stop  offset="0.7654" style="stop-color:#020202"/>
	<stop  offset="1" style="stop-color:#000000"/>
</linearGradient>
<linearGradient id="SVGID_2_" gradientUnits="userSpaceOnUse" x1="1.4903" y1="24.4046" x2="25.9138" y2="24.4046">
	<stop  offset="0" style="stop-color:#000000"/>
	<stop  offset="4.332632e-02" style="stop-color:#292929"/>
	<stop  offset="0.1036" style="stop-color:#5B5B5B"/>
	<stop  offset="0.1652" style="stop-color:#868686"/>
	<stop  offset="0.2271" style="stop-color:#AAAAAA"/>
	<stop  offset="0.2893" style="stop-color:#C5C5C5"/>
	<stop  offset="0.3521" style="stop-color:#D8D8D8"/>
	<stop  offset="0.4157" style="stop-color:#E4E4E4"/>
	<stop  offset="0.4815" style="stop-color:#E8E8E8"/>
	<stop  offset="0.5846" style="stop-color:#E5E5E5"/>
	<stop  offset="0.6563" style="stop-color:#DCDCDC"/>
	<stop  offset="0.7186" style="stop-color:#CDCDCD"/>
	<stop  offset="0.7754" style="stop-color:#B7B7B7"/>
	<stop  offset="0.8286" style="stop-color:#9A9A9A"/>
	<stop  offset="0.879" style="stop-color:#787878"/>
	<stop  offset="0.9273" style="stop-color:#4E4E4E"/>
	<stop  offset="0.9727" style="stop-color:#202020"/>
	<stop  offset="1" style="stop-color:#000000"/>
</linearGradient>
<path class="st0" d="M12.9,1.1c-0.1,0.1-0.5,0.9-0.8,1.8s-0.7,1.9-1,2.1C11,5.2,8.8,6.9,6.4,8.6c-4.1,3-4.4,3.2-4.4,3.8
	c-0.1,0.6,0.6,3.3,0.9,3.7c0.2,0.2,1.6,0.4,4.6,0.6l2.2,0.1V18c0,0.9-0.4,2.8-1.5,6.9C7.4,28,6.8,30.8,6.8,31c0,0.5,0.2,0.6,1.9,0.7
	c1.3,0.1,1.7,0.3,1.7,0.8s-1.6,4-2.4,5.1c-0.4,0.5-1,1.4-1.5,1.9s-0.9,1.2-1,1.4s-0.2,1.2-0.2,2.2c0,1.2-0.1,2-0.3,2.3
	c-0.4,0.7-0.3,1.7,0.1,1.9c1.5,0.8,18.5,0.6,20-0.2c0.4-0.2,0.4-1.1,0.1-1.8c-0.2-0.3-0.3-1-0.3-2c0-1.8-0.2-2.8-0.7-3.4
	c-3.1-3.8-5-7.4-4.2-8c0.1-0.1,1-0.3,2-0.4c2.6-0.3,2.6-0.2,2.7-5c0.1-5.3,0.1-5.7-0.2-6.8c-0.2-0.6-0.4-1.8-0.4-2.8
	c-0.1-1.8-0.3-2.5-1.2-4.2c-0.3-0.6-0.7-1.6-0.8-2.1c-0.2-1.1-1.7-4.1-2.7-5.7c-0.3-0.5-0.9-1.5-1.2-2.3c-0.5-1-0.7-1.4-1.1-1.4
	C15.5,1.1,15,1,14.1,1C13.6,1,13,1.1,12.9,1.1z"/>
</svg>
