<?xml version="1.0" encoding="utf-8"?>
<!-- Generator: Adobe Illustrator 25.1.0, SVG Export Plug-In . SVG Version: 6.00 Build 0)  -->
<svg version="1.1" id="Layer_1" xmlns="http://www.w3.org/2000/svg" xmlns:xlink="http://www.w3.org/1999/xlink" x="0px" y="0px"
	 viewBox="0 0 28 50" style="enable-background:new 0 0 28 50;" xml:space="preserve">
<style type="text/css">
	.st0{fill:url(#SVGID_1_);stroke:url(#SVGID_2_);stroke-miterlimit:10;}
</style>
<linearGradient id="SVGID_1_" gradientUnits="userSpaceOnUse" x1="1.9903" y1="25.5954" x2="25.4138" y2="25.5954" gradientTransform="matrix(1 0 0 -1 0 50)">
	<stop  offset="0" style="stop-color:#4E4E4E"/>
	<stop  offset="5.254777e-03" style="stop-color:#525252"/>
	<stop  offset="6.795181e-02" style="stop-color:#808080"/>
	<stop  offset="0.1331" style="stop-color:#A7A7A7"/>
	<stop  offset="0.1998" style="stop-color:#C7C7C7"/>
	<stop  offset="0.2687" style="stop-color:#E0E0E0"/>
	<stop  offset="0.3406" style="stop-color:#F1F1F1"/>
	<stop  offset="0.4174" style="stop-color:#FCFCFC"/>
	<stop  offset="0.5079" style="stop-color:#FFFFFF"/>
	<stop  offset="0.6148" style="stop-color:#FCFCFC"/>
	<stop  offset="0.69" style="stop-color:#F3F3F3"/>
	<stop  offset="0.7554" style="stop-color:#E3E3E3"/>
	<stop  offset="0.8153" style="stop-color:#CDCDCD"/>
	<stop  offset="0.8713" style="stop-color:#B1B1B1"/>
	<stop  offset="0.9246" style="stop-color:#8E8E8E"/>
	<stop  offset="0.9747" style="stop-color:#666666"/>
	<stop  offset="1" style="stop-color:#4E4E4E"/>
</linearGradient>
<linearGradient id="SVGID_2_" gradientUnits="userSpaceOnUse" x1="1.4903" y1="24.4046" x2="25.9138" y2="24.4046">
	<stop  offset="0" style="stop-color:#000000"/>
	<stop  offset="0.5079" style="stop-color:#FFFFFF"/>
	<stop  offset="1" style="stop-color:#000000"/>
</linearGradient>
<path class="st0" d="M12.9,1.1c-0.1,0.1-0.5,0.9-0.8,1.8s-0.7,1.9-1,2.1C11,5.2,8.8,6.9,6.4,8.6c-4.1,3-4.4,3.2-4.4,3.8
	c-0.1,0.6,0.6,3.3,0.9,3.7c0.2,0.2,1.6,0.4,4.6,0.6l2.2,0.1V18c0,0.9-0.4,2.8-1.5,6.9C7.4,28,6.8,30.8,6.8,31c0,0.5,0.2,0.6,1.9,0.7
	c1.3,0.1,1.7,0.3,1.7,0.8s-1.6,4-2.4,5.1c-0.4,0.5-1,1.4-1.5,1.9s-0.9,1.2-1,1.4s-0.2,1.2-0.2,2.2c0,1.2-0.1,2-0.3,2.3
	c-0.4,0.7-0.3,1.7,0.1,1.9c1.5,0.8,18.5,0.6,20-0.2c0.4-0.2,0.4-1.1,0.1-1.8c-0.2-0.3-0.3-1-0.3-2c0-1.8-0.2-2.8-0.7-3.4
	c-3.1-3.8-5-7.4-4.2-8c0.1-0.1,1-0.3,2-0.4c2.6-0.3,2.6-0.2,2.7-5c0.1-5.3,0.1-5.7-0.2-6.8c-0.2-0.6-0.4-1.8-0.4-2.8
	c-0.1-1.8-0.3-2.5-1.2-4.2c-0.3-0.6-0.7-1.6-0.8-2.1c-0.2-1.1-1.7-4.1-2.7-5.7c-0.3-0.5-0.9-1.5-1.2-2.3c-0.5-1-0.7-1.4-1.1-1.4
	C15.5,1.1,15,1,14.1,1C13.6,1,13,1.1,12.9,1.1z"/>
</svg>
