<?xml version="1.0" encoding="utf-8"?>
<!-- Generator: Adobe Illustrator 25.1.0, SVG Export Plug-In . SVG Version: 6.00 Build 0)  -->
<svg version="1.1" id="Layer_1" xmlns="http://www.w3.org/2000/svg" xmlns:xlink="http://www.w3.org/1999/xlink" x="0px" y="0px"
	 viewBox="0 0 19 30.1" style="enable-background:new 0 0 19 30.1;" xml:space="preserve">
<style type="text/css">
	.st0{fill:url(#SVGID_1_);stroke:url(#SVGID_2_);stroke-miterlimit:10;}
</style>
<g>
	<linearGradient id="SVGID_1_" gradientUnits="userSpaceOnUse" x1="2.6453" y1="15.0726" x2="16.3066" y2="15.0726">
		<stop  offset="0" style="stop-color:#000000"/>
		<stop  offset="0.1726" style="stop-color:#030303"/>
		<stop  offset="0.2992" style="stop-color:#0C0C0C"/>
		<stop  offset="0.4107" style="stop-color:#1C1C1C"/>
		<stop  offset="0.4603" style="stop-color:#262626"/>
		<stop  offset="0.5287" style="stop-color:#181818"/>
		<stop  offset="0.6341" style="stop-color:#0A0A0A"/>
		<stop  offset="0.7654" style="stop-color:#020202"/>
		<stop  offset="1" style="stop-color:#000000"/>
	</linearGradient>
	<linearGradient id="SVGID_2_" gradientUnits="userSpaceOnUse" x1="2.1453" y1="15.0726" x2="16.8066" y2="15.0726">
		<stop  offset="0" style="stop-color:#000000"/>
		<stop  offset="4.332632e-02" style="stop-color:#292929"/>
		<stop  offset="0.1036" style="stop-color:#5B5B5B"/>
		<stop  offset="0.1652" style="stop-color:#868686"/>
		<stop  offset="0.2271" style="stop-color:#AAAAAA"/>
		<stop  offset="0.2893" style="stop-color:#C5C5C5"/>
		<stop  offset="0.3521" style="stop-color:#D8D8D8"/>
		<stop  offset="0.4157" style="stop-color:#E4E4E4"/>
		<stop  offset="0.4815" style="stop-color:#E8E8E8"/>
		<stop  offset="0.5846" style="stop-color:#E5E5E5"/>
		<stop  offset="0.6563" style="stop-color:#DCDCDC"/>
		<stop  offset="0.7186" style="stop-color:#CDCDCD"/>
		<stop  offset="0.7754" style="stop-color:#B7B7B7"/>
		<stop  offset="0.8286" style="stop-color:#9A9A9A"/>
		<stop  offset="0.879" style="stop-color:#787878"/>
		<stop  offset="0.9273" style="stop-color:#4E4E4E"/>
		<stop  offset="0.9727" style="stop-color:#202020"/>
		<stop  offset="1" style="stop-color:#000000"/>
	</linearGradient>
	<path class="st0" d="M16.3,22c0,0,0-0.1,0-0.1l0,0c0,0,0-0.1-0.1-0.1c0,0-4-5-4.4-11.8c0.7-0.6,1.1-1.5,1.1-2.6
		c0-1.9-1.6-3.5-3.4-3.5S6,5.6,6,7.5c0,1,0.4,1.9,1.1,2.6c-0.4,6.9-4.3,11.7-4.4,11.8c0,0,0,0.1,0,0.1l0,0c0,0,0,0.1,0,0.1l0,0v3.7
		c0,0.3,0.2,0.5,0.5,0.5h12.7c0.3,0,0.5-0.2,0.5-0.5L16.3,22L16.3,22z"/>
</g>
</svg>
