<?xml version="1.0" encoding="utf-8"?>
<!-- Generator: Adobe Illustrator 25.1.0, SVG Export Plug-In . SVG Version: 6.00 Build 0)  -->
<svg version="1.1" id="Layer_1" xmlns="http://www.w3.org/2000/svg" xmlns:xlink="http://www.w3.org/1999/xlink" x="0px" y="0px"
	 viewBox="0 0 19 30.1" style="enable-background:new 0 0 19 30.1;" xml:space="preserve">
<style type="text/css">
	.st0{fill:url(#SVGID_1_);stroke:url(#SVGID_2_);stroke-miterlimit:10;}
</style>
<g>
	
		<linearGradient id="SVGID_1_" gradientUnits="userSpaceOnUse" x1="2.6453" y1="16.9" x2="16.3066" y2="16.9" gradientTransform="matrix(1 0 0 -1 0 32)">
		<stop  offset="0" style="stop-color:#4E4E4E"/>
		<stop  offset="5.254777e-03" style="stop-color:#525252"/>
		<stop  offset="6.795181e-02" style="stop-color:#808080"/>
		<stop  offset="0.1331" style="stop-color:#A7A7A7"/>
		<stop  offset="0.1998" style="stop-color:#C7C7C7"/>
		<stop  offset="0.2687" style="stop-color:#E0E0E0"/>
		<stop  offset="0.3406" style="stop-color:#F1F1F1"/>
		<stop  offset="0.4174" style="stop-color:#FCFCFC"/>
		<stop  offset="0.5079" style="stop-color:#FFFFFF"/>
		<stop  offset="0.6148" style="stop-color:#FCFCFC"/>
		<stop  offset="0.69" style="stop-color:#F3F3F3"/>
		<stop  offset="0.7554" style="stop-color:#E3E3E3"/>
		<stop  offset="0.8153" style="stop-color:#CDCDCD"/>
		<stop  offset="0.8713" style="stop-color:#B1B1B1"/>
		<stop  offset="0.9246" style="stop-color:#8E8E8E"/>
		<stop  offset="0.9747" style="stop-color:#666666"/>
		<stop  offset="1" style="stop-color:#4E4E4E"/>
	</linearGradient>
	<linearGradient id="SVGID_2_" gradientUnits="userSpaceOnUse" x1="2.2" y1="15.1" x2="16.9" y2="15.1">
		<stop  offset="0" style="stop-color:#000000"/>
		<stop  offset="0.5079" style="stop-color:#FFFFFF"/>
		<stop  offset="1" style="stop-color:#000000"/>
	</linearGradient>
	<path class="st0" d="M16.3,22v-0.1l0,0c0,0,0-0.1-0.1-0.1c0,0-4-5-4.4-11.8c0.7-0.6,1.1-1.5,1.1-2.6c0-1.9-1.6-3.5-3.4-3.5
		S6,5.6,6,7.5c0,1,0.4,1.9,1.1,2.6C6.7,17,2.8,21.8,2.7,21.9V22l0,0v0.1l0,0v3.7c0,0.3,0.2,0.5,0.5,0.5h12.7c0.3,0,0.5-0.2,0.5-0.5
		L16.3,22L16.3,22z"/>
</g>
</svg>
