<?xml version="1.0" encoding="utf-8"?>
<!-- Generator: Adobe Illustrator 25.1.0, SVG Export Plug-In . SVG Version: 6.00 Build 0)  -->
<svg version="1.1" id="Layer_1" xmlns="http://www.w3.org/2000/svg" xmlns:xlink="http://www.w3.org/1999/xlink" x="0px" y="0px"
	 viewBox="0 0 28 50" style="enable-background:new 0 0 28 50;" xml:space="preserve">
<style type="text/css">
	.st0{fill:url(#SVGID_1_);stroke:url(#SVGID_2_);stroke-miterlimit:10;}
</style>
<linearGradient id="SVGID_1_" gradientUnits="userSpaceOnUse" x1="5.2608" y1="24.9875" x2="23.54" y2="24.9875">
	<stop  offset="0" style="stop-color:#000000"/>
	<stop  offset="0.1726" style="stop-color:#030303"/>
	<stop  offset="0.2992" style="stop-color:#0C0C0C"/>
	<stop  offset="0.4107" style="stop-color:#1C1C1C"/>
	<stop  offset="0.4603" style="stop-color:#262626"/>
	<stop  offset="0.5287" style="stop-color:#181818"/>
	<stop  offset="0.6341" style="stop-color:#0A0A0A"/>
	<stop  offset="0.7654" style="stop-color:#020202"/>
	<stop  offset="1" style="stop-color:#000000"/>
</linearGradient>
<linearGradient id="SVGID_2_" gradientUnits="userSpaceOnUse" x1="4.7608" y1="24.9875" x2="24.04" y2="24.9875">
	<stop  offset="0" style="stop-color:#000000"/>
	<stop  offset="4.332632e-02" style="stop-color:#292929"/>
	<stop  offset="0.1036" style="stop-color:#5B5B5B"/>
	<stop  offset="0.1652" style="stop-color:#868686"/>
	<stop  offset="0.2271" style="stop-color:#AAAAAA"/>
	<stop  offset="0.2893" style="stop-color:#C5C5C5"/>
	<stop  offset="0.3521" style="stop-color:#D8D8D8"/>
	<stop  offset="0.4157" style="stop-color:#E4E4E4"/>
	<stop  offset="0.4815" style="stop-color:#E8E8E8"/>
	<stop  offset="0.5846" style="stop-color:#E5E5E5"/>
	<stop  offset="0.6563" style="stop-color:#DCDCDC"/>
	<stop  offset="0.7186" style="stop-color:#CDCDCD"/>
	<stop  offset="0.7754" style="stop-color:#B7B7B7"/>
	<stop  offset="0.8286" style="stop-color:#9A9A9A"/>
	<stop  offset="0.879" style="stop-color:#787878"/>
	<stop  offset="0.9273" style="stop-color:#4E4E4E"/>
	<stop  offset="0.9727" style="stop-color:#202020"/>
	<stop  offset="1" style="stop-color:#000000"/>
</linearGradient>
<path class="st0" d="M13.3,1c-0.3,0.1-0.7,0.4-0.9,0.6c-0.5,0.6-0.5,1.2,0,2.5c0.3,1,0.2,1.5-0.6,1.9c-0.4,0.2-0.7,0.5-1,1.1L10.2,8
	H9.1C8.4,8,7.9,8.1,7.8,8.2c-0.4,0.4-0.2,0.9,0.8,2c1.2,1.2,1.7,2.1,2,3.2c0.2,0.7,0.2,0.8-0.1,1.3s-0.3,0.6,0,0.9
	c0.3,0.4,0.3,1.9,0.1,2.3c-0.1,0.1-0.3,0.3-0.5,0.3c-0.3,0.1-0.4,0.3-0.4,0.7C9.6,19.6,9.4,20,9,20s-0.8,0.4-0.7,0.7
	C8.4,21,9,21.2,9.9,21.4c0.3,0.1,0.7,0.2,0.8,0.2c0.1,0.1,0.2,2.2,0.2,5.7c0,4.8,0,5.8-0.3,6.8C9.8,37,9,38.9,7.3,41
	c-0.6,0.7-1.1,1.5-1.3,1.7C5.9,43,5.8,43.5,5.7,45c0,1-0.1,2-0.2,2c-0.2,0.3-0.3,1.4-0.2,1.6c0.4,0.7,16,0.7,17.7,0
	c0.6-0.2,0.7-0.8,0.3-1.5C23,46.6,23,46.2,23,44.9c0-1.7-0.1-1.9-0.9-3c-1.3-1.6-2.7-4-3.3-5.9c-0.7-2.3-0.8-3.2-0.8-9v-5.5l0.6-0.1
	c1.3-0.3,1.7-0.5,1.7-0.9c0-0.3-0.1-0.4-0.5-0.5c-0.5-0.1-0.5-0.1-0.6-0.9s-0.1-0.9-0.7-1.1c-0.6-0.3-0.6-0.3-0.6-1.1
	c0-0.4,0.1-1,0.2-1.3c0.1-0.4,0.1-0.6,0-0.9c-0.5-0.8,0.5-2.9,2-4.5c1.1-1.1,1.2-1.6,0.7-2.1c-0.2-0.2-0.6-0.3-1.3-0.3
	c-1,0-1.1,0-1.4-0.5c-0.2-0.3-0.5-0.7-0.6-0.9C17.3,6.2,17,6,16.7,5.9s-0.5-0.2-0.6-0.3c-0.2-0.4-0.1-1.4,0.2-1.9
	C17,2.8,16.6,1.6,15.6,1C15.1,0.8,14,0.8,13.3,1z"/>
</svg>
