<?xml version="1.0" encoding="utf-8"?>
<!-- Generator: Adobe Illustrator 25.1.0, SVG Export Plug-In . SVG Version: 6.00 Build 0)  -->
<svg version="1.1" id="Layer_1" xmlns="http://www.w3.org/2000/svg" xmlns:xlink="http://www.w3.org/1999/xlink" x="0px" y="0px"
	 viewBox="0 0 28 50" style="enable-background:new 0 0 28 50;" xml:space="preserve">
<style type="text/css">
	.st0{fill:url(#SVGID_1_);stroke:url(#SVGID_2_);stroke-miterlimit:10;}
</style>
<linearGradient id="SVGID_1_" gradientUnits="userSpaceOnUse" x1="5.2608" y1="24.9875" x2="23.54" y2="24.9875">
	<stop  offset="0" style="stop-color:#4E4E4E"/>
	<stop  offset="5.254777e-03" style="stop-color:#525252"/>
	<stop  offset="6.795181e-02" style="stop-color:#808080"/>
	<stop  offset="0.1331" style="stop-color:#A7A7A7"/>
	<stop  offset="0.1998" style="stop-color:#C7C7C7"/>
	<stop  offset="0.2687" style="stop-color:#E0E0E0"/>
	<stop  offset="0.3406" style="stop-color:#F1F1F1"/>
	<stop  offset="0.4174" style="stop-color:#FCFCFC"/>
	<stop  offset="0.5079" style="stop-color:#FFFFFF"/>
	<stop  offset="0.6148" style="stop-color:#FCFCFC"/>
	<stop  offset="0.69" style="stop-color:#F3F3F3"/>
	<stop  offset="0.7554" style="stop-color:#E3E3E3"/>
	<stop  offset="0.8153" style="stop-color:#CDCDCD"/>
	<stop  offset="0.8713" style="stop-color:#B1B1B1"/>
	<stop  offset="0.9246" style="stop-color:#8E8E8E"/>
	<stop  offset="0.9747" style="stop-color:#666666"/>
	<stop  offset="1" style="stop-color:#4E4E4E"/>
</linearGradient>
<linearGradient id="SVGID_2_" gradientUnits="userSpaceOnUse" x1="4.7608" y1="24.9875" x2="24.04" y2="24.9875">
	<stop  offset="0" style="stop-color:#000000"/>
	<stop  offset="0.5079" style="stop-color:#FFFFFF"/>
	<stop  offset="1" style="stop-color:#000000"/>
</linearGradient>
<path class="st0" d="M13.3,1c-0.3,0.1-0.7,0.4-0.9,0.6c-0.5,0.6-0.5,1.2,0,2.5c0.3,1,0.2,1.5-0.6,1.9c-0.4,0.2-0.7,0.5-1,1.1L10.2,8
	H9.1C8.4,8,7.9,8.1,7.8,8.2c-0.4,0.4-0.2,0.9,0.8,2c1.2,1.2,1.7,2.1,2,3.2c0.2,0.7,0.2,0.8-0.1,1.3s-0.3,0.6,0,0.9
	c0.3,0.4,0.3,1.9,0.1,2.3c-0.1,0.1-0.3,0.3-0.5,0.3c-0.3,0.1-0.4,0.3-0.4,0.7C9.6,19.6,9.4,20,9,20s-0.8,0.4-0.7,0.7
	C8.4,21,9,21.2,9.9,21.4c0.3,0.1,0.7,0.2,0.8,0.2c0.1,0.1,0.2,2.2,0.2,5.7c0,4.8,0,5.8-0.3,6.8C9.8,37,9,38.9,7.3,41
	c-0.6,0.7-1.1,1.5-1.3,1.7C5.9,43,5.8,43.5,5.7,45c0,1-0.1,2-0.2,2c-0.2,0.3-0.3,1.4-0.2,1.6c0.4,0.7,16,0.7,17.7,0
	c0.6-0.2,0.7-0.8,0.3-1.5C23,46.6,23,46.2,23,44.9c0-1.7-0.1-1.9-0.9-3c-1.3-1.6-2.7-4-3.3-5.9c-0.7-2.3-0.8-3.2-0.8-9v-5.5l0.6-0.1
	c1.3-0.3,1.7-0.5,1.7-0.9c0-0.3-0.1-0.4-0.5-0.5c-0.5-0.1-0.5-0.1-0.6-0.9s-0.1-0.9-0.7-1.1c-0.6-0.3-0.6-0.3-0.6-1.1
	c0-0.4,0.1-1,0.2-1.3c0.1-0.4,0.1-0.6,0-0.9c-0.5-0.8,0.5-2.9,2-4.5c1.1-1.1,1.2-1.6,0.7-2.1c-0.2-0.2-0.6-0.3-1.3-0.3
	c-1,0-1.1,0-1.4-0.5c-0.2-0.3-0.5-0.7-0.6-0.9C17.3,6.2,17,6,16.7,5.9s-0.5-0.2-0.6-0.3c-0.2-0.4-0.1-1.4,0.2-1.9
	C17,2.8,16.6,1.6,15.6,1C15.1,0.8,14,0.8,13.3,1z"/>
</svg>
