<?xml version="1.0" encoding="utf-8"?>
<!-- Generator: Adobe Illustrator 25.1.0, SVG Export Plug-In . SVG Version: 6.00 Build 0)  -->
<svg version="1.1" id="Layer_1" xmlns="http://www.w3.org/2000/svg" xmlns:xlink="http://www.w3.org/1999/xlink" x="0px" y="0px"
	 viewBox="0 0 28 50" style="enable-background:new 0 0 28 50;" xml:space="preserve">
<style type="text/css">
	.st0{fill:url(#SVGID_1_);stroke:url(#SVGID_2_);stroke-miterlimit:10;}
</style>
<linearGradient id="SVGID_1_" gradientUnits="userSpaceOnUse" x1="1.0454" y1="25.0135" x2="27" y2="25.0135">
	<stop  offset="0" style="stop-color:#000000"/>
	<stop  offset="0.1726" style="stop-color:#030303"/>
	<stop  offset="0.2992" style="stop-color:#0C0C0C"/>
	<stop  offset="0.4107" style="stop-color:#1C1C1C"/>
	<stop  offset="0.4603" style="stop-color:#262626"/>
	<stop  offset="0.5287" style="stop-color:#181818"/>
	<stop  offset="0.6341" style="stop-color:#0A0A0A"/>
	<stop  offset="0.7654" style="stop-color:#020202"/>
	<stop  offset="1" style="stop-color:#000000"/>
</linearGradient>
<linearGradient id="SVGID_2_" gradientUnits="userSpaceOnUse" x1="0.5454" y1="25.0135" x2="27.5" y2="25.0135">
	<stop  offset="0" style="stop-color:#000000"/>
	<stop  offset="4.332632e-02" style="stop-color:#292929"/>
	<stop  offset="0.1036" style="stop-color:#5B5B5B"/>
	<stop  offset="0.1652" style="stop-color:#868686"/>
	<stop  offset="0.2271" style="stop-color:#AAAAAA"/>
	<stop  offset="0.2893" style="stop-color:#C5C5C5"/>
	<stop  offset="0.3521" style="stop-color:#D8D8D8"/>
	<stop  offset="0.4157" style="stop-color:#E4E4E4"/>
	<stop  offset="0.4815" style="stop-color:#E8E8E8"/>
	<stop  offset="0.5846" style="stop-color:#E5E5E5"/>
	<stop  offset="0.6563" style="stop-color:#DCDCDC"/>
	<stop  offset="0.7186" style="stop-color:#CDCDCD"/>
	<stop  offset="0.7754" style="stop-color:#B7B7B7"/>
	<stop  offset="0.8286" style="stop-color:#9A9A9A"/>
	<stop  offset="0.879" style="stop-color:#787878"/>
	<stop  offset="0.9273" style="stop-color:#4E4E4E"/>
	<stop  offset="0.9727" style="stop-color:#202020"/>
	<stop  offset="1" style="stop-color:#000000"/>
</linearGradient>
<path class="st0" d="M10.6,2.1c-0.4,0-0.9,0.2-1.1,0.3c-0.3,0.2-0.9,0.2-1.9,0C6.8,2.3,5.8,2.2,5.3,2.3L4.5,2.5l0.1,1.8
	c0.1,1,0.2,2.9,0.2,4.2C4.9,9.8,5,11.1,5,11.4c0.1,0.6,0.7,0.9,2.3,1.3l1.2,0.2l0.1,6c0,3.6,0,6.5-0.2,7.4
	c-0.7,4.1-3.1,9.1-5.9,12.6C2,39.5,2,39.7,1.9,42.2c-0.1,2-0.2,2.9-0.5,3.4c-0.4,0.8-0.5,1.5-0.1,1.7c1.6,0.9,21.2,1,24.9,0.1
	c0.7-0.2,0.8-0.3,0.8-0.9c0-0.4-0.2-1-0.4-1.4c-0.2-0.4-0.4-1.5-0.5-3.2c-0.1-1.4-0.2-2.7-0.4-3c-0.1-0.2-0.8-1.1-1.5-2
	c-1.5-1.9-3.4-5.7-4.2-8.4c-0.5-1.9-0.6-2.4-0.7-8.5c-0.2-7.2-0.2-7.5,1.1-7.5c0.8,0,2.2-0.4,2.4-0.7c0.1-0.2,0.2-1.5,0.4-2.9
	c0.1-1.5,0.2-3.5,0.3-4.5c0.1-1.9,0.1-1.9-0.4-2.1c-1-0.3-4.1-0.1-4.7,0.2c-0.9,0.5-2.4,0.4-3-0.1C14.9,2,14.6,2,13.1,2
	C12.1,2,11,2.1,10.6,2.1z"/>
</svg>
